<?xml version="1.0" standalone="no"?><!DOCTYPE svg PUBLIC "-//W3C//DTD SVG 1.1//EN" "http://www.w3.org/Graphics/SVG/1.1/DTD/svg11.dtd"><svg t="1784085023275" class="icon" viewBox="0 0 1024 1024" version="1.1" xmlns="http://www.w3.org/2000/svg" p-id="24397" xmlns:xlink="http://www.w3.org/1999/xlink" width="256" height="256"><path d="M651.610909 1023.992H279.277818l9.255928-4.639964a186.158546 186.158546 0 0 0 100.095218-134.206951l18.871852-107.039164a93.095273 93.095273 0 0 1 92.15928-79.935375H617.435176c46.319638 0 85.599331 34.079734 92.15928 79.935375l34.159733 139.630909c7.279943 50.895602-28.087781 98.047234-78.983383 105.319177-4.359966 0.623995-8.759932 0.935993-13.167897 0.935993z" fill="#999AAC" p-id="24398"></path><path d="M742.298201 911.736877l-3.86397-15.815876-5.479957-22.367826-6.271951-25.631799-6.271951-25.6398-5.479957-22.367825-3.86397-15.807877-1.471989-5.999953a93.095273 93.095273 0 0 0-92.15928-79.935375h-2.55998a23.279818 23.279818 0 0 0 0 46.551636h2.55998a46.767635 46.767635 0 0 1 46.07964 39.959688c0.215998 1.503988 0.503996 2.999977 0.871993 4.479965l33.535738 137.046929a46.559636 46.559636 0 0 1-46.311638 51.2396H255.998A23.279818 23.279818 0 0 0 255.998 1023.992h395.612909c51.383599 0.032 93.071273-41.599675 93.103273-92.975274 0-4.447965-0.319998-8.879931-0.943993-13.279896l-1.471988-5.999953z" fill="#7C7F95" p-id="24399"></path><path d="M488.716182 744.714182h93.103273a69.823455 69.823455 0 0 1 0 139.638909H488.716182a69.823455 69.823455 0 0 1 0-139.630909z" fill="#7C7F95" p-id="24400"></path><path d="M93.095273 0h837.801454C982.312326 0 1023.992 41.679674 1023.992 93.095273v605.075273c0 51.415598-41.679674 93.095273-93.095273 93.095272H93.095273C41.679674 791.273818 0 749.594144 0 698.170546V93.095273C0 41.679674 41.679674 0 93.095273 0z" fill="#999AAC" p-id="24401"></path><path d="M93.095273 0h698.170545c51.415598 0 93.087273 41.679674 93.087273 93.095273v605.075273c0 51.415598-41.679674 93.095273-93.087273 93.095272H93.095273C41.679674 791.273818 0 749.594144 0 698.170546V93.095273C0 41.679674 41.679674 0 93.095273 0z" fill="#CACAD4" p-id="24402"></path><path d="M929.592738 22.919821a47.759627 47.759627 0 0 0-7.839939 0.663995 47.33563 47.33563 0 0 0-38.623698 54.319575v0.032l0.015999 0.08 0.287998 1.895985 0.175999 1.079991c0.04 0.463996 0.079999 0.927993 0.143999 1.399989 0.255998 2.311982 0.431997 4.639964 0.527996 7.007946l0.007999 0.159998v0.008l0.008 0.151999v0.024l0.008 0.143999v0.016l0.016 0.655995v0.015999l0.008 0.151999v0.199999l0.008 0.119999v0.695994l0.016 0.032v607.627253l-0.008 0.103999v0.335997l-0.008 0.127999V700.290529l-0.008 0.135999v0.167999l-0.008 0.271997v0.024l-0.008 0.135999V701.330521l-0.024 0.287998v0.311997l-0.015999 0.143999v0.295998a3.583972 3.583972 0 0 0-0.024 0.295997v0.008c-0.343997 7.359943-1.567988 14.647886-3.639972 21.719831a46.551636 46.551636 0 0 0 89.335302 26.167795c4.983961-17.015867 7.511941-34.655729 7.503942-52.39159V93.095273c0-7.079945-0.399997-14.151889-1.199991-21.175835a54.479574 54.479574 0 0 0-0.271998-2.015984 51.959594 51.959594 0 0 0-0.375997-3.063976l-0.783994-5.055961a45.775642 45.775642 0 0 0-45.231646-38.863696z" fill="#7C7F95" p-id="24403"></path><path d="M791.273818 0H93.087273C41.679674 0 0 41.679674 0 93.087273v511.996h884.361091v-511.996C884.361091 41.679674 842.681417 0 791.265818 0z" fill="#2C2F53" p-id="24404"></path><path d="M465.452364 698.170546a46.543636 46.543636 0 1 1-93.087273 0 46.543636 46.543636 0 1 1 93.087273 0z" fill="#4C4F6E" p-id="24405"></path><path d="M954.168546 139.630909a23.279818 23.279818 0 0 1 23.279818 23.279818v232.718182a23.271818 23.271818 0 1 1-46.551637 0v-232.718182a23.279818 23.279818 0 0 1 23.279818-23.279818z" fill="#2C2F53" p-id="24406"></path><path d="M69.823455 605.091273h744.714181a23.271818 23.271818 0 1 1 0 46.535636H69.823455a23.271818 23.271818 0 1 1 0-46.535636z" fill="#EAEAEE" p-id="24407"></path><path d="M93.095273 465.452364h698.170545a46.551636 46.551636 0 0 1 0 93.087272H93.095273a46.543636 46.543636 0 0 1 0-93.087272z" fill="#4C4F6E" p-id="24408"></path><path d="M139.630909 418.900727a46.543636 46.543636 0 1 1 0 93.095273 46.543636 46.543636 0 0 1 0-93.095273z" fill="#11CBE5" p-id="24409"></path><path d="M116.367091 418.900727a23.271818 23.271818 0 1 1-0.008 46.543637 23.271818 23.271818 0 0 1 0-46.543637z" fill="#BCF4F5" p-id="24410"></path><path d="M325.821455 418.900727a46.551636 46.551636 0 1 1-0.016 93.103273 46.551636 46.551636 0 0 1 0.016-93.103273z" fill="#91EDF8" p-id="24411"></path><path d="M511.996 418.900727a46.551636 46.551636 0 1 1-0.008 93.103273A46.551636 46.551636 0 0 1 511.996 418.900727z" fill="#FDB8BF" p-id="24412"></path><path d="M698.170546 418.900727a46.543636 46.543636 0 1 1 0 93.095273 46.543636 46.543636 0 0 1 0-93.095273z" fill="#FA4659" p-id="24413"></path><path d="M488.716182 418.900727a23.279818 23.279818 0 1 1 0 46.559637 23.279818 23.279818 0 0 1 0-46.559637zM674.898727 418.900727a23.271818 23.271818 0 1 1 0 46.543637 23.271818 23.271818 0 0 1 0-46.543637z" fill="#FEDEE1" p-id="24414"></path><path d="M302.541636 418.900727a23.279818 23.279818 0 1 1 0 46.559637 23.279818 23.279818 0 0 1 0-46.559637z" fill="#E9FFF5" p-id="24415"></path><path d="M209.454364 977.448364h232.718182a23.279818 23.279818 0 0 1 0 46.543636h-232.718182a23.279818 23.279818 0 0 1 0-46.543636z" fill="#CACAD4" p-id="24416"></path></svg>