<?xml version="1.0" standalone="no"?><!DOCTYPE svg PUBLIC "-//W3C//DTD SVG 1.1//EN" "http://www.w3.org/Graphics/SVG/1.1/DTD/svg11.dtd"><svg t="1784081613097" class="icon" viewBox="0 0 1024 1024" version="1.1" xmlns="http://www.w3.org/2000/svg" p-id="21266" xmlns:xlink="http://www.w3.org/1999/xlink" width="256" height="256"><path d="M400.091429 359.472762V246.54019l-0.146286-2.194285v-5.12h-0.390095C396.678095 214.357333 379.708952 195.047619 358.985143 195.047619H213.528381c-20.821333 0-37.790476 19.21219-40.618667 44.178286h-0.633904v167.643428h0.195047v46.031238c0 0.828952-0.195048 1.560381-0.195047 2.340572v317.781333h0.633904c2.925714 24.917333 19.894857 44.178286 40.618667 44.178286H358.887619c20.821333 0 37.790476-19.163429 40.618667-44.178286H399.847619v-3.803428h0.146286V403.748571H399.847619v-42.081523c0.048762-0.731429 0.195048-1.462857 0.195048-2.194286z" fill="#F7C32E" p-id="21267"></path><path d="M224.49981 689.298286a61.732571 61.732571 0 1 0 123.465142-0.048762 61.732571 61.732571 0 0 0-123.465142 0z m5.266285-418.669715h112.981334v287.012572H229.766095V270.628571z" fill="#FFFFFF" opacity=".397" p-id="21268"></path><path d="M257.414095 689.298286a28.769524 28.769524 0 1 0 57.490286 0 28.769524 28.769524 0 0 0-57.539048 0z" fill="#F7C32E" p-id="21269"></path><path d="M628.004571 359.472762V246.54019l-0.146285-2.194285v-5.12h-0.390096c-2.925714-24.868571-19.894857-44.178286-40.618666-44.178286H441.392762c-20.772571 0-37.790476 19.21219-40.618667 44.178286h-0.585143v167.643428h0.146286v46.031238c0 0.828952-0.146286 1.560381-0.146286 2.340572v317.781333h0.585143c2.925714 24.917333 19.894857 44.178286 40.618667 44.178286h145.359238c20.821333 0 37.790476-19.163429 40.618667-44.178286h0.390095v-3.803428h0.146286V403.748571h-0.146286v-42.081523c0.097524-0.731429 0.24381-1.462857 0.243809-2.194286z" fill="#1CD583" p-id="21270"></path><path d="M452.36419 689.298286a61.732571 61.732571 0 1 0 123.513905-0.048762 61.732571 61.732571 0 0 0-123.513905 0z m5.266286-418.669715h112.981334v287.012572H457.630476V270.628571z" fill="#FFFFFF" opacity=".4" p-id="21271"></path><path d="M513.999238 718.019048a28.769524 28.769524 0 1 0 0-57.490286 28.769524 28.769524 0 0 0 0 57.490286z" fill="#1CD583" p-id="21272"></path><path d="M855.478857 359.472762V246.54019l-0.146286-2.194285v-5.12h-0.390095c-2.876952-24.868571-19.846095-44.178286-40.569905-44.178286h-145.554285c-20.772571 0-37.790476 19.21219-40.618667 44.178286h-0.585143v167.643428h0.146286v46.031238c0 0.828952-0.146286 1.560381-0.146286 2.340572v317.781333h0.585143c2.925714 24.917333 19.894857 44.178286 40.618667 44.178286H814.32381c20.821333 0 37.790476-19.163429 40.618666-44.178286h0.390095v-3.803428h0.146286V403.748571h-0.146286v-42.081523c0.048762-0.731429 0.195048-1.462857 0.195048-2.194286z" fill="#3A92F0" p-id="21273"></path><path d="M679.887238 689.298286a61.732571 61.732571 0 1 0 123.465143-0.048762 61.732571 61.732571 0 0 0-123.465143 0z m5.168762-418.669715h112.981333v287.012572H685.104762V270.628571z" fill="#FFFFFF" opacity=".4" p-id="21274"></path><path d="M712.801524 689.298286a28.769524 28.769524 0 1 0 57.490286 0 28.769524 28.769524 0 0 0-57.539048 0z" fill="#3A92F0" p-id="21275"></path></svg>